{"title":"Despicable.Me.2.2013.TS.XviD.Feel-Free","uid":8698873,"size":1120859014,"categoryP":"video","categoryS":"movies","magnet":"?xt=urn:btih:6775acdceeeb0935e735ad65ccbed81d12ec8476&amp;dn=Despicable.Me.2.2013.TS.XviD.Feel-Free&amp;tr=udp%3A%2F%2Ftracker.openbittorrent.com%3A80&amp;tr=udp%3A%2F%2Fopen.demonii.com%3A1337&amp;tr=udp%3A%2F%2Ftracker.coppersurfer.tk%3A6969&amp;tr=udp%3A%2F%2Fexodus.desync.com%3A6969","seeders":5,"leechers":0,"uploader":"SaM","files":6,"time":1374016665,"description":"Genre:Animation | Comedy | Crime | Family\nLanguage:English\nIMDb:http://www.imdb.com/title/tt1690953/\nSource:1080p Troublemaker/JUSTiCE Thanks\nSample:Never\nEncoder:Tony\n\n\nFormat : AVI\nFormat/Info : Audio Video Interleave\nFile size : 1.04 GiB\nDuration : 1h 33mn\nOverall bit rate : 1 591 Kbps\n\nVideo\nID : 0\nFormat : MPEG-4 Visual\nFormat profile : Advanced Simple@L5\nFormat settings, BVOP : 1\nFormat settings, QPel : No\nFormat settings, GMC : No warppoints\nFormat settings, Matrix : Default (H.263)\nCodec ID : XVID\nCodec ID/Hint : XviD\nDuration : 1h 33mn\nBit rate : 1 423 Kbps\nWidth : 640 pixels\nHeight : 344 pixels\nDisplay aspect ratio : 1.860\nFrame rate : 20.000 fps\nColor space : YUV\nChroma subsampling : 4:2:0\nBit depth : 8 bits\nScan type : Progressive\nCompression mode : Lossy\nBits/(Pixel*Frame) : 0.323\nStream size : 955 MiB (89%)\nWriting library : XviD 1.2.1 (UTC 2008-12-04)\n\nAudio\nID : 1\nFormat : AC-3\nFormat/Info : Audio Coding 3\nMode extension : CM (complete main)\nCodec ID : 2000\nDuration : 1h 33mn\nBit rate mode : Constant\nBit rate : 160 Kbps\nChannel(s) : 2 channels\nChannel positions : Front: L R\nSampling rate : 48.0 KHz\nBit depth : 16 bits\nCompression mode : Lossy\nStream size : 107 MiB (10%)\nAlignment : Aligned on interleaves\nInterleave, duration : 50 ms (1.00 video frame)\nInterleave, preload duration : 512 m\n\n &lt;a href=&quot;\nhttp://lookpic.com/O/i2/1575/EkXbuCWz.png&quot; rel=&quot;nofollow&quot; target=&quot;_NEW&quot;&gt;\nhttp://lookpic.com/O/i2/1575/EkXbuCWz.png&lt;/a&gt; &lt;a href=&quot;\nhttp://lookpic.com/O/i2/1387/m0bu37Or.png&quot; rel=&quot;nofollow&quot; target=&quot;_NEW&quot;&gt;\nhttp://lookpic.com/O/i2/1387/m0bu37Or.png&lt;/a&gt; &lt;a href=&quot;\nhttp://lookpic.com/O/i2/1926/xi4I0sV2.png&quot; rel=&quot;nofollow&quot; target=&quot;_NEW&quot;&gt;\nhttp://lookpic.com/O/i2/1926/xi4I0sV2.png&lt;/a&gt;\n\nGreets:\nCRYS,INSPiRAL,IMAGINE,LKRG,ADTRG,FXG,3Li,FLAWL3SS,CrEwSaDe,TA,iLLUSiON,EMBER,HOPE,GooN,BBnRG,NOGRP,ETRG,BHRG,iLLUMiNATi,MiSTERE.ViSiON,DTRG SAFCuk009,LU,TheFalcon007,MYSTiC,PrisM,Noir,WBZ,LAP,Rx,Kingdom,SAFCuk009+Fabreezy,HDLiTE,TWiZTED,ETRG.ELEKTRI4KA,MAGNAT,CM8\nAnd to all the other p2p grps past and present\n\n\n\n\nMake sure its a real Feel-Free release @\nThanks to all who promotes release Feel-Free !!!","torrent":{"xt":"urn:btih:6775acdceeeb0935e735ad65ccbed81d12ec8476","amp;dn":"Despicable.Me.2.2013.TS.XviD.Feel-Free","amp;tr":["udp%3A%2F%2Ftracker.openbittorrent.com%3A80","udp%3A%2F%2Fopen.demonii.com%3A1337","udp%3A%2F%2Ftracker.coppersurfer.tk%3A6969","udp%3A%2F%2Fexodus.desync.com%3A6969"],"infoHash":"6775acdceeeb0935e735ad65ccbed81d12ec8476","infoHashBuffer":{"type":"Buffer","data":[103,117,172,220,238,235,9,53,231,53,173,101,204,190,216,29,18,236,132,118]},"announce":[],"urlList":[]}}